{"title":"Under.The.Tonto.Rim.1947.DVDRip.XViD-SPRiNTER","uid":5751328,"size":733460723,"categoryP":"video","categoryS":"movies","magnet":"?xt=urn:btih:5b861eacaad533ef55925d50e939851530dc71c1&amp;dn=Under.The.Tonto.Rim.1947.DVDRip.XViD-SPRiNTER&amp;tr=udp%3A%2F%2Ftracker.openbittorrent.com%3A80&amp;tr=udp%3A%2F%2Fopen.demonii.com%3A1337&amp;tr=udp%3A%2F%2Ftracker.coppersurfer.tk%3A6969&amp;tr=udp%3A%2F%2Fexodus.desync.com%3A6969","seeders":0,"leechers":1,"uploader":"TvTeam","files":4,"time":1281408414,"description":". \n  &lt;a href=&quot;\nhttp://www.torrentday.com/&quot; rel=&quot;nofollow&quot; target=&quot;_NEW&quot;&gt;\nhttp://www.torrentday.com/&lt;/a&gt;        :     The Hottest Private Tracker On The Net!!!\n\n\n               www . TorrentDay . Com \n(((((((((((((= Enjoy No RAR releases =))))))))))))))))))))\n\n\n...................................NFO:....................................\n\n.\n                                                     \n                                                   \n                                                         \n                                                          \n                                                           \n                                                          \n                                                          \n                                                          \n                                                           \n                                                         \n                                                          \n                                                        \n                                                      \n                                     \n                                                 \n                                                   \n                                             \n                                              \n                                                     \n                                                      \n                                                      \n                                                      \n                                                    \n                                                     \n                                                   \n                                                     \n                                                     \n                                                      \n                                                     \n                                                      \n                                                    \n                 ARTiCHOKE                        \n                                                \n                      \n                                                        \n                                                      \n                                                      \n                                               \n                                          \n                                                   \n                                            \n                                                    \n                                                       \n                                                        \n                                                      \n                                                \n                                                        \n                                                 \n                                              \n                                                  \n                                                \n                                                  \n                                        \n\n      \n                                \n      SPRiNTER proudly presents...     \n                                \n      \n \n Under.The.Tonto.Rim.1947.DVDRip.XViD-SPRiNTER \n &lt;a href=&quot; http://www.imdb.com/title/tt0039934/&quot; rel=&quot;nofollow&quot; target=&quot;_NEW&quot;&gt; http://www.imdb.com/title/tt0039934/&lt;/a&gt;\n Subtitles: N/A\n\n Date: 2010.08\n\n Director:Lew Landers\n\n Genre: Western\n\n\n Plot: When the Tonto Rim gang attack Brad's stagecoach, they take the strongbox and kill one of his workers. Learning the gang member Patton is in jail, Brad gets himself thrown in also. Chito helps break him out and he takes Patton with him. Patton leads him to the Tonto Rim hideout, but needing to get to the Sheriff, Brad finds himself a prisoner.\n \n\n Cast\n \n Tim Holt ...  Brad Canfield \n Nan Leslie ...  Lucy Dennison \n Richard Martin ...  Chito Jose Gonzalez Bustamonte Rafferty \n Tom Keene ...  Dennison (as Richard Powers) \n Carol Forman ...  Juanita \n Tony Barrett ...  Henchman Roy Patton \n Harry Harvey ...  Sheriff in Tonto \n Jason Robards Sr. ...  Captain McLean, Arizona Rangers (as Jason Robards) \n Robert Clarke ...  Hooker, Dennison Henchman \n\n\n\n\n\n      \n                 \n      Release notes     \n                 \n      \n\n Enjoy!\n\n\n      \n           \n     Greetings    \n           \n      \n\n\nNTX aAF FiCO HNR CiNEFiLE AEN HUMANiSM\n\n\n      \n           \n      Details     \n           \n      \n\n\n\nFormat                           : AVI\nFormat/Info                      : Audio Video Interleave\nFile size                        : 699 MiB\nDuration                         : 1h 1mn\nOverall bit rate                 : 1 602 Kbps\nWriting application              : Nandub v1.0rc2\nWriting library                  : Nandub build 1852/release\n\nVideo\nID                               : 0\nFormat                           : MPEG-4 Visual\nFormat profile                   : Advanced Simple@L5\nFormat settings, BVOP            : No\nFormat settings, QPel            : No\nFormat settings, GMC             : No warppoints\nFormat settings, Matrix          : Default (H.263)\nCodec ID                         : XVID\nCodec ID/Hint                    : XviD\nDuration                         : 1h 1mn\nBit rate                         : 1 542 Kbps\nWidth                            : 528 pixels\nHeight                           : 384 pixels\nDisplay aspect ratio             : 1.375\nFrame rate                       : 23.976 fps\nResolution                       : 8 bits\nColorimetry                      : 4:2:0\nScan type                        : Progressive\nBits/(Pixel*Frame)               : 0.317\nStream size                      : 674 MiB (96%)\nWriting library                  : XviD 1.1.2 (UTC 2006-11-01)\n\nAudio\nID                               : 1\nFormat                           : MPEG Audio\nFormat version                   : Version 1\nFormat profile                   : Layer 3\nCodec ID                         : 55\nCodec ID/Hint                    : MP3\nDuration                         : 1h 1mn\nBit rate mode                    : Variable\nBit rate                         : 46.6 Kbps\nMinimum bit rate                 : 40.0 Kbps\nChannel(s)                       : 1 channel\nSampling rate                    : 48.0 KHz\nStream size                      : 20.4 MiB (3%)\nAlignment                        : Aligned on interleaves\nInterleave, duration             : 24 ms (0.58 video frame)\nInterleave, preload duration     : 457 ms\nWriting library                  : LAME3.95 \nEncoding settings                : -m m -V 6 -q 3 -lowpass 16 --vbr-old -b 40","torrent":{"xt":"urn:btih:5b861eacaad533ef55925d50e939851530dc71c1","amp;dn":"Under.The.Tonto.Rim.1947.DVDRip.XViD-SPRiNTER","amp;tr":["udp%3A%2F%2Ftracker.openbittorrent.com%3A80","udp%3A%2F%2Fopen.demonii.com%3A1337","udp%3A%2F%2Ftracker.coppersurfer.tk%3A6969","udp%3A%2F%2Fexodus.desync.com%3A6969"],"infoHash":"5b861eacaad533ef55925d50e939851530dc71c1","infoHashBuffer":{"type":"Buffer","data":[91,134,30,172,170,213,51,239,85,146,93,80,233,57,133,21,48,220,113,193]},"announce":[],"urlList":[]}}